<svg xmlns="http://www.w3.org/2000/svg" xmlns:xlink="http://www.w3.org/1999/xlink" viewBox="0 0 97.84 38.28"><defs><style>.cls-1{fill:#292d33;}.cls-2{fill:url(#Безымянный_градиент_80);}</style><linearGradient id="Безымянный_градиент_80" y1="19.14" x2="97.84" y2="19.14" gradientUnits="userSpaceOnUse"><stop offset="0" stop-color="#eac981"/><stop offset="0" stop-color="#f9cd84"/><stop offset="0.34" stop-color="#dea966"/><stop offset="0.59" stop-color="#eed394"/><stop offset="0.77" stop-color="#d19251"/><stop offset="1" stop-color="#dea966"/></linearGradient></defs><g id="Слой_2" data-name="Слой 2"><g id="Слой_1-2" data-name="Слой 1"><rect class="cls-1" x="8.51" y="8.5" width="21.26" height="21.26"/><path class="cls-1" d="M85.07,25.52V38.28H97.84V25.52ZM93.58,34H89.32V29.77h4.26Z"/><rect class="cls-1" x="76.56" y="25.52" width="4.25" height="8.51"/><polygon class="cls-1" points="72.33 29.77 68.05 29.77 68.05 34.02 68.05 38.28 72.33 38.28 76.56 38.28 76.56 34.02 72.33 34.02 72.33 29.77"/><rect class="cls-1" x="63.82" y="25.52" width="4.23" height="4.25"/><rect class="cls-1" x="51.06" y="25.52" width="8.5" height="4.25"/><polygon class="cls-1" points="46.8 25.52 42.54 25.52 42.54 34.02 42.54 38.28 46.8 38.28 51.06 38.28 51.06 34.02 46.8 34.02 46.8 25.52"/><rect class="cls-1" x="59.56" y="29.77" width="4.26" height="4.26"/><rect class="cls-1" x="55.3" y="34.03" width="4.25" height="4.26"/><rect class="cls-1" x="46.8" y="8.5" width="4.26" height="4.25"/><rect class="cls-1" x="42.54" y="4.25" width="4.25" height="4.25"/><polygon class="cls-1" points="51.06 8.5 55.3 8.5 55.3 4.25 55.3 0 51.06 0 46.8 0 46.8 4.25 51.06 4.25 51.06 8.5"/><rect class="cls-1" x="55.3" y="8.5" width="4.25" height="4.25"/><polygon class="cls-1" points="63.82 12.76 68.05 12.76 72.33 12.76 72.33 8.5 68.05 8.5 68.05 4.25 72.33 4.25 72.33 0 68.05 0 63.82 0 63.82 4.25 59.56 4.25 59.56 8.5 63.82 8.5 63.82 12.76"/><path class="cls-2" d="M80.81,8.5H76.56V0h4.25Zm12.77,4.26V17h4.26v4.24H38.28V34.14a4.14,4.14,0,0,1-4.14,4.14H0V4.14A4.14,4.14,0,0,1,4.14,0H38.28V17H76.56V12.76h4.28l0-4.26h4.26V17h4.25V8.5H85.07V4.25h4.25V0h8.52V4.25H93.58V8.5h4.26v4.26ZM34,4.25H5.25a1,1,0,0,0-1,1V34H33a1,1,0,0,0,1-1Z"/></g></g></svg>