<svg width="192" height="48" viewBox="0 0 192 48" fill="none" xmlns="http://www.w3.org/2000/svg">
<g clip-path="url(#clip0)">
<path d="M24.8926 14.1704V24.7986C23.5418 25.9674 21.9752 26.8598 20.2814 27.4252C18.4762 28.0394 16.5816 28.349 14.675 28.3413C12.0544 28.381 9.46714 27.7504 7.15819 26.5091C4.97972 25.33 3.16743 23.5735 1.91979 21.432C0.632923 19.2309 -0.0308251 16.7205 -0.000207382 14.1704C-0.030439 11.6192 0.633262 9.10795 1.91979 6.90552C3.16854 4.76574 4.98063 3.01057 7.15819 1.83164C9.48173 0.586296 12.0845 -0.0443779 14.7198 -0.000589474C16.712 -0.0210704 18.6912 0.323054 20.5598 1.01483C22.2675 1.65146 23.802 2.68062 25.0398 4.01943C24.5673 4.49767 23.9444 4.79804 23.2762 4.86982C22.6081 4.9416 21.9357 4.7804 21.3726 4.41342C19.412 3.19453 17.1392 2.57346 14.8318 2.62604C12.704 2.59617 10.6037 3.10992 8.72939 4.11873C6.95008 5.07831 5.4705 6.51171 4.45419 8.26047C3.41253 10.0537 2.87617 12.0962 2.90219 14.1704C2.8745 16.2387 3.4111 18.2754 4.45419 20.0611C5.47298 21.7993 6.94247 23.2293 8.70699 24.1996C10.5685 25.2229 12.6635 25.7449 14.787 25.7147C17.6478 25.7147 20.0734 24.9972 22.0638 23.5622V16.9956C22.0638 16.6241 22.137 16.2561 22.2792 15.913C22.4215 15.5698 22.63 15.258 22.8927 14.9956C23.1555 14.7332 23.4674 14.5252 23.8105 14.3836C24.1537 14.242 24.5214 14.1695 24.8926 14.1704ZM34.4766 26.4899C32.2959 25.3104 30.4805 23.5542 29.2286 21.4128C27.9566 19.214 27.3041 16.711 27.3406 14.1704C27.3045 11.6288 27.9569 9.12487 29.2286 6.92474C30.4798 4.78357 32.2954 3.02823 34.4766 1.85086C36.7765 0.601968 39.3579 -0.035498 41.9742 -0.000589474C44.5752 -0.0384031 47.1424 0.592456 49.4302 1.83164C51.6028 3.01398 53.4109 4.76856 54.659 6.90552C55.947 9.10732 56.6108 11.619 56.579 14.1704C56.6112 16.7207 55.9474 19.2315 54.659 21.432C53.4119 23.5706 51.6036 25.3264 49.4302 26.5091C47.1424 27.7483 44.5752 28.3792 41.9742 28.3413C39.3579 28.3763 36.7765 27.7388 34.4766 26.4899ZM47.939 24.2188C49.687 23.253 51.1327 21.8203 52.115 20.0803C53.1305 18.2782 53.6516 16.2392 53.6254 14.1704C53.6516 12.1015 53.1305 10.0626 52.115 8.26047C51.132 6.52023 49.6865 5.08664 47.939 4.11873C46.0998 3.13863 44.0482 2.62603 41.9646 2.62603C39.881 2.62603 37.8294 3.13863 35.9902 4.11873C34.2308 5.08394 32.7722 6.51733 31.7758 8.26047C30.7459 10.0577 30.2165 12.0986 30.243 14.1704C30.2165 16.2421 30.7459 18.2831 31.7758 20.0803C32.7718 21.823 34.2305 23.2554 35.9902 24.2188C37.8287 25.2011 39.8806 25.7149 41.9646 25.7149C44.0486 25.7149 46.1005 25.2011 47.939 24.2188ZM59.1998 0.239651C59.5863 0.23923 59.969 0.315061 60.3262 0.46281C60.6833 0.610558 61.0079 0.827326 61.2813 1.10072C61.5547 1.37411 61.7716 1.69877 61.9196 2.05613C62.0676 2.41349 62.1438 2.79655 62.1438 3.18339V25.5546H75.1998C75.8787 25.5546 76.5299 25.8245 77.01 26.3051C77.4901 26.7857 77.7598 27.4375 77.7598 28.1171H59.1998V0.239651ZM80.2558 0.239651H91.5902C94.5299 0.239651 97.1273 0.830108 99.3822 2.01102C101.568 3.12256 103.392 4.83487 104.64 6.94716C105.907 9.13994 106.554 11.6373 106.509 14.1704C106.554 16.7034 105.907 19.2008 104.64 21.3936C103.393 23.5043 101.571 25.2163 99.3886 26.3297C97.1294 27.5128 94.5321 28.1032 91.5966 28.1011H80.2622L80.2558 0.239651ZM83.1998 25.545H91.4302C93.6506 25.5952 95.8491 25.0956 97.8302 24.0907C99.5961 23.1817 101.069 21.7914 102.08 20.0803C103.111 18.2843 103.634 16.2413 103.593 14.1704C103.634 12.0994 103.111 10.0565 102.08 8.26047C101.069 6.54517 99.5949 5.15054 97.827 4.23725C95.8451 3.2348 93.647 2.73644 91.427 2.7862H83.1998V25.5546V25.545ZM128.825 28.1171H109.149V0.239651H125.689C126.368 0.239651 127.019 0.509634 127.5 0.990208C127.98 1.47078 128.249 2.12258 128.249 2.80221H112.089V12.6969H123.981C124.645 12.6969 125.282 12.9612 125.752 13.4315C126.222 13.9019 126.486 14.5398 126.486 15.205H112.086V25.5546H126.281C126.956 25.5571 127.602 25.826 128.08 26.3028C128.557 26.7797 128.828 27.4259 128.832 28.1011L128.825 28.1171ZM155.325 0.24926V28.1171C154.568 28.1168 153.822 27.9455 153.141 27.616C152.46 27.2865 151.862 26.8074 151.392 26.2144L135.011 5.4929V25.1574C135.011 25.9381 134.701 26.6868 134.15 27.2389C133.598 27.791 132.85 28.1011 132.07 28.1011V0.239651C132.826 0.240119 133.571 0.411155 134.252 0.740027C134.932 1.0689 135.53 1.54714 136 2.13915L152.425 22.8479V3.14496C152.425 2.76316 152.501 2.3851 152.647 2.0324C152.793 1.67971 153.007 1.35929 153.277 1.08946C153.546 0.819637 153.867 0.605701 154.219 0.459884C154.572 0.314067 154.95 0.23923 155.331 0.239651L155.325 0.24926Z" fill="url(#paint0_linear)"/>
<path d="M145.328 29.0178C146.653 28.6632 148.03 28.5482 149.395 28.6783C151.152 28.8026 152.897 29.052 154.618 29.4246C156.471 29.8154 158.377 30.3055 160.333 30.8949C162.289 31.4843 164.15 32.0876 165.917 32.7047C167.679 33.324 169.268 33.9198 170.685 34.4921C172.101 35.0644 173.202 35.547 173.987 35.9399C174.167 36.0378 174.328 36.1681 174.461 36.3243C174.566 36.4589 174.573 36.5582 174.483 36.619C174.277 36.6896 174.054 36.6974 173.843 36.6414C173.33 36.54 172.83 36.381 172.352 36.1674C171.057 35.6527 169.648 35.1317 168.125 34.6042C166.602 34.0767 165.012 33.5792 163.357 33.1115C161.699 32.6438 160.019 32.2168 158.317 31.8302C156.614 31.4437 154.949 31.149 153.322 30.9461C151.779 30.7469 150.227 30.6389 148.672 30.6226C147.32 30.5959 145.969 30.7097 144.64 30.9622C144.261 31.0115 143.877 30.9492 143.533 30.7828C143.146 30.6298 142.787 30.4133 142.47 30.1421C142.317 30.4625 142.15 30.8597 141.926 31.2953C141.702 31.7309 141.491 32.1634 141.248 32.5766C141.005 32.9898 140.768 33.3838 140.525 33.7297C140.344 34.0044 140.129 34.2551 139.885 34.4761C139.586 34.7349 139.24 34.9348 138.867 35.0655C138.499 35.1991 138.121 35.3061 137.738 35.3858C137.457 35.4596 137.164 35.476 136.877 35.4338C136.653 35.3858 136.557 35.2737 136.627 35.0943C137.201 33.7062 137.887 32.047 138.685 30.1165C139.483 28.1861 140.38 26.2257 141.376 24.2354C142.357 22.2835 143.458 20.3942 144.672 18.5786C145.736 16.9241 147.056 15.4493 148.582 14.2094C149.013 13.8472 149.556 13.6477 150.118 13.6456C150.586 13.6509 151.048 13.7512 151.475 13.9403C151.815 14.0865 152.108 14.3251 152.32 14.629C152.502 14.8981 152.502 15.1095 152.32 15.2697C151.629 15.9103 150.913 16.6428 150.173 17.4671C149.433 18.2914 148.702 19.1883 147.981 20.1578C147.25 21.1352 146.579 22.1557 145.971 23.2136C145.367 24.2553 144.832 25.3361 144.371 26.4488C145.577 25.7207 146.887 24.9807 148.304 24.229C149.721 23.4773 151.159 22.7299 152.621 21.9868C154.082 21.2458 155.536 20.5219 156.982 19.815C158.429 19.1082 159.787 18.4505 161.056 17.8418C163.499 16.6246 165.94 15.3498 168.381 14.0172C170.821 12.6847 173.308 11.4557 175.84 10.3303C176.08 10.2086 176.224 10.3303 176.269 10.6699C176.303 11.1284 176.249 11.5892 176.112 12.028C175.932 12.6503 175.68 13.2491 175.36 13.8122C175.023 14.4352 174.572 14.9885 174.029 15.4426C173.096 16.1911 172.079 16.8285 170.998 17.3421C169.733 17.9828 168.302 18.6469 166.704 19.3345C165.106 20.0222 163.39 20.7311 161.555 21.4615C159.716 22.1854 157.855 22.9467 155.971 23.7453C154.087 24.544 152.23 25.3843 150.4 26.2663C148.662 27.093 146.969 28.0114 145.328 29.0178ZM177.782 26.167C178.355 25.7441 178.672 25.6096 178.742 25.7602C178.813 25.9107 178.698 26.1958 178.422 26.6186C178.079 27.1682 177.697 27.6927 177.28 28.1882C176.773 28.8018 176.221 29.3767 175.629 29.9083C175.037 30.4425 174.403 30.9268 173.731 31.3562C173.172 31.7363 172.542 31.9979 171.878 32.1249C171.349 32.1631 170.818 32.0627 170.339 31.8334C169.672 31.5686 169.05 31.2035 168.493 30.7508C167.918 30.2732 167.427 29.7026 167.04 29.0627C166.661 28.4893 166.516 27.7924 166.634 27.1151C166.734 26.549 166.966 26.0145 167.312 25.5552C167.663 25.0695 168.072 24.6294 168.531 24.245C168.952 23.8877 169.415 23.5832 169.91 23.3385C170.279 23.1384 170.688 23.0224 171.107 22.999C171.429 23.0111 171.744 23.0885 172.035 23.2264C172.382 23.3736 172.706 23.5711 172.995 23.8126C173.264 24.0523 173.485 24.3415 173.645 24.6647C173.804 24.9586 173.875 25.2923 173.85 25.6256C173.731 26.0639 173.497 26.4622 173.171 26.7788C172.761 27.2319 172.324 27.6598 171.862 28.0601C171.257 28.592 170.622 29.0903 169.962 29.5528C170.625 29.7343 171.692 29.5207 173.162 28.9121C174.812 28.1967 176.365 27.2742 177.782 26.167ZM172.448 25.3053C172.326 25.2156 172.048 25.2829 171.613 25.5103C171.154 25.7539 170.724 26.0495 170.333 26.3912C169.924 26.7393 169.566 27.1437 169.27 27.5924C168.986 28.028 168.915 28.3996 169.069 28.7007C169.382 28.5154 169.676 28.3009 169.949 28.0601C170.356 27.7291 170.764 27.3671 171.171 26.9742C171.579 26.5812 171.917 26.2268 172.186 25.9107C172.448 25.6 172.538 25.3982 172.448 25.3053ZM190.8 25.805C191.222 25.443 191.571 25.3758 191.84 25.6C192.109 25.8242 192.035 26.183 191.616 26.6635C191.305 26.9944 190.972 27.3047 190.621 27.5924C190.077 28.0601 189.391 28.6783 188.563 29.447C187.736 30.2158 186.786 31.1127 185.715 32.1377C184.649 33.167 183.541 34.2839 182.394 35.4883C181.143 36.8008 180.023 38.2319 179.05 39.7614C178.173 41.1644 177.45 42.4392 176.88 43.586C176.31 44.7327 175.851 45.6937 175.501 46.4689C175.152 47.2376 174.845 47.6829 174.573 47.8046C174.242 47.9368 173.889 48.0053 173.533 48.0064C173.137 48.0253 172.74 47.9798 172.358 47.8719C172.052 47.8023 171.78 47.6264 171.59 47.3754C171.44 47.1479 171.514 46.8244 171.814 46.4144C172.028 46.0813 172.487 45.3125 173.194 44.1081C173.9 42.9037 174.736 41.4858 175.702 39.8543C176.669 38.2249 177.716 36.4823 178.845 34.6266C179.973 32.7709 181.066 31.0294 182.122 29.4022C181.52 29.9766 180.932 30.4892 180.358 30.9397C179.785 31.3903 179.317 31.6167 178.957 31.6188C178.709 31.606 178.464 31.5518 178.234 31.4587C177.921 31.35 177.619 31.2138 177.331 31.0519C177.03 30.8762 176.749 30.6678 176.493 30.4304C176.26 30.2368 176.094 29.9744 176.019 29.6809C176.037 29.2463 176.153 28.8214 176.358 28.438C176.65 27.7845 176.982 27.1501 177.354 26.5385C177.76 25.8595 178.195 25.1964 178.666 24.5461C179.033 24.0076 179.463 23.5141 179.946 23.0759C180.052 22.9982 180.174 22.9458 180.303 22.9224C180.432 22.8991 180.565 22.9056 180.691 22.9413C181.032 23.0093 181.358 23.1396 181.651 23.3257C181.967 23.5206 182.255 23.7565 182.509 24.0272C182.721 24.2197 182.871 24.4721 182.938 24.7512C183.03 24.9626 182.877 25.3373 182.486 25.8819C182.096 26.4264 181.68 26.9614 181.245 27.4835C180.81 28.0056 180.454 28.4637 180.182 28.8384C179.91 29.2132 179.939 29.3445 180.272 29.2228C180.608 29.0747 180.919 28.8771 181.197 28.6366C181.574 28.3355 181.982 27.981 182.419 27.5732C182.854 27.1664 183.299 26.7339 183.754 26.2919C184.208 25.8499 184.627 25.4334 185.018 25.0715C185.221 24.8982 185.411 24.7085 185.584 24.5045C185.671 24.3794 185.787 24.2781 185.923 24.2098C186.168 24.1843 186.415 24.215 186.646 24.2995C186.915 24.3917 187.173 24.5142 187.414 24.6647C187.648 24.808 187.848 25.0003 188 25.2284C188.136 25.4155 188.215 25.638 188.227 25.8691C188.227 26.1093 188.048 26.4585 187.686 26.9101C187.325 27.3618 186.864 27.9287 186.307 28.6078C185.75 29.2869 185.101 30.0845 184.362 31.0038C183.561 32.0127 182.813 33.0626 182.122 34.1493C182.211 34.0597 182.55 33.6977 183.139 33.0635C183.728 32.4292 184.451 31.6818 185.309 30.8212C186.17 29.9628 187.085 29.0787 188.067 28.1722C189.05 27.2657 189.958 26.5001 190.8 25.805Z" fill="#242424"/>
</g>
<defs>
<linearGradient id="paint0_linear" x1="-0.000207382" y1="14.1704" x2="155.331" y2="14.1704" gradientUnits="userSpaceOnUse">
<stop stop-color="#F8CD84"/>
<stop offset="0.34" stop-color="#DDA865"/>
<stop offset="0.59" stop-color="#EDD294"/>
<stop offset="0.77" stop-color="#D09150"/>
<stop offset="1" stop-color="#DDA865"/>
</linearGradient>
<clipPath id="clip0">
<rect width="192" height="48" fill="white"/>
</clipPath>
</defs>
</svg>
