<svg width="0" height="0" class="hidden">
  <symbol xmlns="http://www.w3.org/2000/svg" viewBox="0 0 24 24" id="open">
    <path d="M1.181 12C2.121 6.88 6.608 3 12 3c5.392 0 9.878 3.88 10.819 9-.94 5.12-5.427 9-10.819 9-5.392 0-9.878-3.88-10.819-9zM12 17a5 5 0 100-10 5 5 0 000 10zm0-2a3 3 0 110-6 3 3 0 010 6z" fill="#9096A0"></path>
  </symbol>
  <symbol fill="none" xmlns="http://www.w3.org/2000/svg" viewBox="0 0 24 24" id="close">
    <path d="M9.342 18.782l-1.931-.518.787-2.939a10.99 10.99 0 01-3.237-1.872l-2.153 2.154-1.415-1.415 2.154-2.153a10.957 10.957 0 01-2.371-5.07l1.968-.359C3.903 10.812 7.579 14 12 14c4.42 0 8.097-3.188 8.856-7.39l1.968.358a10.958 10.958 0 01-2.37 5.071l2.153 2.153-1.415 1.415-2.153-2.154a10.99 10.99 0 01-3.237 1.872l.787 2.94-1.931.517-.788-2.94a11.07 11.07 0 01-3.74 0l-.788 2.94z" fill="#9096A0"></path>
  </symbol>

  <symbol fill="none" xmlns="http://www.w3.org/2000/svg" viewBox="0 0 24 24" id="no-connection">
    <path d="M19.5 9.75a6.682 6.682 0 01-1.894 4.675l1.06 1.06A8.235 8.235 0 0017.7 3.15l-.902 1.2a6.7 6.7 0 012.7 5.4z" fill="#9096A0"></path>
    <path d="M15.75 9.75a3.751 3.751 0 01-.677 2.142l1.07 1.071a5.238 5.238 0 00-.643-7.126l-1 1.118a3.756 3.756 0 011.25 2.795zm6.75 11.69L2.56 1.5 1.5 2.56l2.782 2.783A8.236 8.236 0 006.3 16.351l.9-1.2a6.726 6.726 0 01-1.821-8.712l1.648 1.647A5.225 5.225 0 008.5 13.663l1-1.118A3.754 3.754 0 018.25 9.75c.002-.137.012-.274.03-.41l2.97 2.97V22.5h1.5v-8.69l8.69 8.69 1.06-1.06z" fill="#9096A0"></path>
  </symbol>

  <symbol fill="none" xmlns="http://www.w3.org/2000/svg" viewBox="0 0 18 22" id="bell">
    <path d="M15 8A6 6 0 103 8v8h12V8zm2 8.667l.4.533a.5.5 0 01-.4.8H1a.5.5 0 01-.4-.8l.4-.533V8a8 8 0 0116 0v8.667zM6.5 19h5a2.5 2.5 0 01-5 0z" fill="#1B1D21"></path>
  </symbol>

  <symbol fill="none" xmlns="http://www.w3.org/2000/svg" viewBox="0 0 37 38" id="qr">
    <path d="M23.125 5.125h9.25v7.708h-3.083V8.208h-6.167V5.125zm-9.25 0v3.083H7.708v4.625H4.625V5.125h9.25zm9.25 27.75v-3.083h6.167v-4.625h3.083v7.708h-9.25zm-9.25 0h-9.25v-7.708h3.083v4.625h6.167v3.083zm-9.25-15.417h27.75v3.084H4.625v-3.084z" fill="#9096A0" opacity=".5"></path>
  </symbol>

  <symbol fill="none" xmlns="http://www.w3.org/2000/svg" viewBox="0 0 20 20" id="info">
    <path d="M10 1.25a8.75 8.75 0 10.001 17.501A8.75 8.75 0 0010 1.25zm.625 12.969c0 .086-.07.156-.156.156H9.53a.157.157 0 01-.156-.156V8.906c0-.086.07-.156.156-.156h.938c.086 0 .156.07.156.156v5.313zM10 7.5a.938.938 0 010-1.875.938.938 0 010 1.875z" fill="#EB5757"></path>
  </symbol>

  <symbol fill="none" xmlns="http://www.w3.org/2000/svg" viewBox="0 0 25 25" id="phone">
    <circle cx="12.5" cy="12.5" r="12.5" fill="#F2994A"></circle>
    <path d="M16.873 17.5c-5.332.008-9.379-4.088-9.373-9.373 0-.346.28-.627.625-.627h1.65c.31 0 .572.228.618.534.109.734.323 1.45.634 2.123l.065.139a.442.442 0 01-.144.545c-.511.365-.706 1.099-.308 1.671a7.396 7.396 0 001.848 1.849c.573.397 1.307.202 1.671-.309a.442.442 0 01.546-.144l.138.064a7.743 7.743 0 002.123.635.626.626 0 01.534.619v1.649a.626.626 0 01-.626.625z" fill="#fff"></path>
  </symbol>

  <symbol fill="none" xmlns="http://www.w3.org/2000/svg" viewBox="0 0 30 30" id="red-face">
    <path d="M15 0c8.285 0 15 6.715 15 15a14.937 14.937 0 01-1.598 6.744 2.965 2.965 0 00-.597-1.163l-.184-.202-2.121-2.121-2.121 2.121-.176.19a3 3 0 002.519 4.924A14.96 14.96 0 0115 30C6.715 30 0 23.285 0 15S6.715 0 15 0zm0 19.5a7.48 7.48 0 00-5.301 2.195l-.249.26 1.418 1.29c1.184-.472 2.605-.745 4.132-.745 1.358 0 2.631.216 3.729.594l.404.15 1.417-1.29A7.48 7.48 0 0015 19.5zM9.75 12a2.25 2.25 0 100 4.5 2.25 2.25 0 000-4.5zm10.5 0a2.25 2.25 0 100 4.5 2.25 2.25 0 000-4.5z" fill="#EB5757"></path>
  </symbol>

  <symbol fill="none" xmlns="http://www.w3.org/2000/svg" viewBox="0 0 30 30" id="green-face">
    <path d="M15 27.5C8.096 27.5 2.5 21.904 2.5 15S8.096 2.5 15 2.5 27.5 8.096 27.5 15 21.904 27.5 15 27.5zM8.75 15a6.25 6.25 0 1012.5 0h-2.5a3.75 3.75 0 01-7.5 0h-2.5z" fill="#27AE60"></path>
    <circle cx="11.528" cy="10.694" fill="#fff" r="1.806"></circle>
    <circle cx="18.472" cy="10.694" fill="#fff" r="1.806"></circle>
  </symbol>

  <symbol  xmlns="http://www.w3.org/2000/svg" viewBox="0 0 14 14" id="arrow">
    <path d="M4.566 6.417h7.1v1.166h-7.1l3.13 3.13-.825.824L2.333 7l4.538-4.537.824.825-3.129 3.129z"></path>
  </symbol>

   <symbol xmlns="http://www.w3.org/2000/svg" viewBox="0 0 16 16" id="download">
    <path d="M.5 9.9a.5.5 0 01.5.5v2.5a1 1 0 001 1h12a1 1 0 001-1v-2.5a.5.5 0 011 0v2.5a2 2 0 01-2 2H2a2 2 0 01-2-2v-2.5a.5.5 0 01.5-.5z"></path>
    <path d="M7.646 11.854a.5.5 0 00.708 0l3-3a.5.5 0 10-.708-.708L8.5 10.293V1.5a.5.5 0 10-1 0v8.793L5.354 8.146a.5.5 0 10-.708.708l3 3z"></path>
  </symbol>

  <symbol xmlns="http://www.w3.org/2000/svg" viewBox="0 0 16 16" id="send">
    <path d="M13.855 2.145a.5.5 0 00-.525-.115l-11 4a.5.5 0 000 .935l4.8 1.92 1.92 4.8A.5.5 0 009.5 14a.5.5 0 00.46-.33l4-11a.5.5 0 00-.105-.525zM9.5 12.1L8.105 8.6 10.5 6.205 9.795 5.5 7.38 7.915 3.9 6.5l8.765-3.165L9.5 12.1z"></path>
  </symbol>

   <symbol xmlns="http://www.w3.org/2000/svg" viewBox="0 0 16 16" id="xlsx">
    <path d="M14.189 5.723h-.385V3.87l-.003-.035a.308.308 0 00-.074-.203L10.642.107c-.001 0-.002 0-.003-.002a.308.308 0 00-.062-.052l-.02-.013a.333.333 0 00-.063-.026L10.477.01a.312.312 0 00-.072-.01H2.824a.628.628 0 00-.628.627v5.096h-.384a.897.897 0 00-.896.897v4.663c0 .495.401.897.896.897h.384v3.193c0 .346.282.627.628.627h10.353a.628.628 0 00.627-.627V12.18h.384a.897.897 0 00.897-.897V6.62a.896.896 0 00-.896-.897zM2.824.627h7.268v3.21c0 .174.14.314.313.314h2.772v1.572H2.824V.627zM9.18 9.182c-.616-.214-1.018-.555-1.018-1.095 0-.633.528-1.118 1.404-1.118.418 0 .726.088.946.187l-.187.677a1.766 1.766 0 00-.776-.176c-.363 0-.54.165-.54.358 0 .237.21.341.689.523.655.242.963.584.963 1.107 0 .622-.479 1.15-1.497 1.15-.424 0-.843-.11-1.052-.225l.17-.694c.226.115.573.231.931.231.386 0 .59-.16.59-.402 0-.23-.177-.363-.623-.523zm-1.42.854v.705H5.442V7.029h.843v3.007H7.76zm-5.01.705h-.958l1.074-1.878-1.035-1.834h.963l.325.677c.11.226.193.408.281.617h.01c.09-.237.16-.402.254-.617l.314-.677h.958L3.89 8.84l1.1 1.9h-.968l-.336-.672c-.137-.258-.226-.45-.33-.666h-.011c-.077.215-.17.408-.286.666l-.309.673zm10.427 4.462H2.824V12.18h10.353v3.023zm.005-4.462l-.335-.672c-.138-.259-.226-.452-.33-.666h-.011c-.078.214-.171.407-.287.666l-.308.671h-.958l1.073-1.877-1.035-1.834h.964l.325.677c.11.226.192.408.28.617h.011c.088-.237.16-.402.254-.617l.313-.677h.958L13.05 8.84l1.101 1.9h-.969z"></path>
  </symbol>
</svg>